<?xml version="1.0" encoding="us-ascii" standalone="no"?><svg xmlns="http://www.w3.org/2000/svg" xmlns:xlink="http://www.w3.org/1999/xlink" contentStyleType="text/css" height="841px" preserveAspectRatio="none" style="width:1315px;height:841px;background:#FFFFFF;" version="1.1" viewBox="0 0 1315 841" width="1315px" zoomAndPan="magnify"><defs/><g><text fill="#000000" font-family="Arial" font-size="14" font-weight="bold" lengthAdjust="spacing" textLength="481" x="418" y="28.1318">S&#416; &#272;&#7890; TU&#7846;N T&#7920;: CH&#7912;C N&#258;NG &#272;&#258;NG NH&#7852;P B&#7856;NG GOOGLE (TAWATCH)</text><rect fill="#F8F9FA" height="580.9766" style="stroke:#457B9D;stroke-width:1.0;" width="10" x="506" y="145.6963"/><rect fill="#F8F9FA" height="415.9824" style="stroke:#457B9D;stroke-width:1.0;" width="10" x="914" y="242.0928"/><rect fill="#F8F9FA" height="27.7988" style="stroke:#457B9D;stroke-width:1.0;" width="10" x="1242" y="404.8857"/><rect fill="#F8F9FA" height="27.7988" style="stroke:#457B9D;stroke-width:1.0;" width="10" x="1242" y="483.2822"/><rect fill="#F8F9FA" height="27.7988" style="stroke:#457B9D;stroke-width:1.0;" width="10" x="1242" y="554.6787"/><rect fill="none" height="436.7813" rx="3" ry="3" style="stroke:#457B9D;stroke-width:1.5;" width="1298" x="10" y="297.8916"/><rect fill="none" height="142.793" rx="3" ry="3" style="stroke:#457B9D;stroke-width:1.5;" width="487" x="811" y="447.6846"/><line style="stroke:#457B9D;stroke-width:0.5;stroke-dasharray:5.0,5.0;" x1="56" x2="56" y1="115.8975" y2="751.6729"/><line style="stroke:#457B9D;stroke-width:0.5;stroke-dasharray:5.0,5.0;" x1="511" x2="511" y1="115.8975" y2="751.6729"/><line style="stroke:#457B9D;stroke-width:0.5;stroke-dasharray:5.0,5.0;" x1="919" x2="919" y1="115.8975" y2="751.6729"/><line style="stroke:#457B9D;stroke-width:0.5;stroke-dasharray:5.0,5.0;" x1="1247" x2="1247" y1="115.8975" y2="751.6729"/><text fill="#000000" font-family="Arial" font-size="12" lengthAdjust="spacing" textLength="66" x="20" y="113.3545">Ng&#432;&#7901;i d&#249;ng</text><ellipse cx="56" cy="50.5986" fill="#E6F0FA" rx="8" ry="8" style="stroke:#1D3557;stroke-width:0.5;"/><path d="M56,58.5986 L56,85.5986 M43,66.5986 L69,66.5986 M56,85.5986 L43,100.5986 M56,85.5986 L69,100.5986 " fill="none" style="stroke:#1D3557;stroke-width:0.5;"/><text fill="#000000" font-family="Arial" font-size="12" lengthAdjust="spacing" textLength="66" x="20" y="761.9287">Ng&#432;&#7901;i d&#249;ng</text><ellipse cx="56" cy="772.9717" fill="#E6F0FA" rx="8" ry="8" style="stroke:#1D3557;stroke-width:0.5;"/><path d="M56,780.9717 L56,807.9717 M43,788.9717 L69,788.9717 M56,807.9717 L43,822.9717 M56,807.9717 L69,822.9717 " fill="none" style="stroke:#1D3557;stroke-width:0.5;"/><rect fill="#FFFFFF" height="41.5977" rx="3" ry="3" style="stroke:#457B9D;stroke-width:0.5;" width="96" x="463" y="73.2998"/><text fill="#1D3557" font-family="Arial" font-size="12" lengthAdjust="spacing" textLength="82" x="470" y="91.5557">T&#7847;ng giao di&#7879;n</text><text fill="#1D3557" font-family="Arial" font-size="12" lengthAdjust="spacing" textLength="57" x="482.5" y="105.3545">(Frontend)</text><rect fill="#FFFFFF" height="41.5977" rx="3" ry="3" style="stroke:#457B9D;stroke-width:0.5;" width="96" x="463" y="750.6729"/><text fill="#1D3557" font-family="Arial" font-size="12" lengthAdjust="spacing" textLength="82" x="470" y="768.9287">T&#7847;ng giao di&#7879;n</text><text fill="#1D3557" font-family="Arial" font-size="12" lengthAdjust="spacing" textLength="57" x="482.5" y="782.7275">(Frontend)</text><rect fill="#FFFFFF" height="41.5977" rx="3" ry="3" style="stroke:#457B9D;stroke-width:0.5;" width="146" x="846" y="73.2998"/><text fill="#1D3557" font-family="Arial" font-size="12" lengthAdjust="spacing" textLength="132" x="853" y="91.5557">T&#7847;ng x&#7917; l&#253; Google Login</text><text fill="#1D3557" font-family="Arial" font-size="12" lengthAdjust="spacing" textLength="56" x="891" y="105.3545">(Backend)</text><rect fill="#FFFFFF" height="41.5977" rx="3" ry="3" style="stroke:#457B9D;stroke-width:0.5;" width="146" x="846" y="750.6729"/><text fill="#1D3557" font-family="Arial" font-size="12" lengthAdjust="spacing" textLength="132" x="853" y="768.9287">T&#7847;ng x&#7917; l&#253; Google Login</text><text fill="#1D3557" font-family="Arial" font-size="12" lengthAdjust="spacing" textLength="56" x="891" y="782.7275">(Backend)</text><text fill="#000000" font-family="Arial" font-size="12" lengthAdjust="spacing" textLength="76" x="1206" y="99.5557">C&#417; s&#7903; d&#7919; li&#7879;u</text><text fill="#000000" font-family="Arial" font-size="12" lengthAdjust="spacing" textLength="41" x="1223.5" y="113.3545">(CSDL)</text><path d="M1229,52.2998 C1229,42.2998 1247,42.2998 1247,42.2998 C1247,42.2998 1265,42.2998 1265,52.2998 L1265,78.2998 C1265,88.2998 1247,88.2998 1247,88.2998 C1247,88.2998 1229,88.2998 1229,78.2998 L1229,52.2998 " fill="#E6F0FA" style="stroke:#1D3557;stroke-width:1.5;"/><path d="M1229,52.2998 C1229,62.2998 1247,62.2998 1247,62.2998 C1247,62.2998 1265,62.2998 1265,52.2998 " fill="none" style="stroke:#1D3557;stroke-width:1.5;"/><text fill="#000000" font-family="Arial" font-size="12" lengthAdjust="spacing" textLength="76" x="1206" y="761.9287">C&#417; s&#7903; d&#7919; li&#7879;u</text><text fill="#000000" font-family="Arial" font-size="12" lengthAdjust="spacing" textLength="41" x="1223.5" y="775.7275">(CSDL)</text><path d="M1229,788.2705 C1229,778.2705 1247,778.2705 1247,778.2705 C1247,778.2705 1265,778.2705 1265,788.2705 L1265,814.2705 C1265,824.2705 1247,824.2705 1247,824.2705 C1247,824.2705 1229,824.2705 1229,814.2705 L1229,788.2705 " fill="#E6F0FA" style="stroke:#1D3557;stroke-width:1.5;"/><path d="M1229,788.2705 C1229,798.2705 1247,798.2705 1247,798.2705 C1247,798.2705 1265,798.2705 1265,788.2705 " fill="none" style="stroke:#1D3557;stroke-width:1.5;"/><rect fill="#F8F9FA" height="580.9766" style="stroke:#457B9D;stroke-width:1.0;" width="10" x="506" y="145.6963"/><rect fill="#F8F9FA" height="415.9824" style="stroke:#457B9D;stroke-width:1.0;" width="10" x="914" y="242.0928"/><rect fill="#F8F9FA" height="27.7988" style="stroke:#457B9D;stroke-width:1.0;" width="10" x="1242" y="404.8857"/><rect fill="#F8F9FA" height="27.7988" style="stroke:#457B9D;stroke-width:1.0;" width="10" x="1242" y="483.2822"/><rect fill="#F8F9FA" height="27.7988" style="stroke:#457B9D;stroke-width:1.0;" width="10" x="1242" y="554.6787"/><polygon fill="#1D3557" points="494,141.6963,504,145.6963,494,149.6963,498,145.6963" style="stroke:#1D3557;stroke-width:1.0;"/><line style="stroke:#1D3557;stroke-width:1.0;" x1="56" x2="500" y1="145.6963" y2="145.6963"/><text fill="#000000" font-family="Arial" font-size="12" font-weight="bold" lengthAdjust="spacing" textLength="7" x="63" y="141.1533">1</text><text fill="#000000" font-family="Arial" font-size="12" lengthAdjust="spacing" textLength="209" x="74" y="141.1533">1. Nh&#7845;n n&#250;t "&#272;&#259;ng nh&#7853;p b&#7857;ng Google"</text><line style="stroke:#1D3557;stroke-width:1.0;" x1="516" x2="558" y1="173.4951" y2="173.4951"/><line style="stroke:#1D3557;stroke-width:1.0;" x1="558" x2="558" y1="173.4951" y2="186.4951"/><line style="stroke:#1D3557;stroke-width:1.0;" x1="517" x2="558" y1="186.4951" y2="186.4951"/><polygon fill="#1D3557" points="527,182.4951,517,186.4951,527,190.4951,523,186.4951" style="stroke:#1D3557;stroke-width:1.0;"/><text fill="#000000" font-family="Arial" font-size="12" font-weight="bold" lengthAdjust="spacing" textLength="7" x="523" y="168.9521">2</text><text fill="#000000" font-family="Arial" font-size="12" lengthAdjust="spacing" textLength="176" x="534" y="168.9521">2. M&#7903; c&#7917;a s&#7893; &#273;&#259;ng nh&#7853;p Google</text><polygon fill="#1D3557" points="494,210.2939,504,214.2939,494,218.2939,498,214.2939" style="stroke:#1D3557;stroke-width:1.0;"/><line style="stroke:#1D3557;stroke-width:1.0;" x1="56" x2="500" y1="214.2939" y2="214.2939"/><text fill="#000000" font-family="Arial" font-size="12" font-weight="bold" lengthAdjust="spacing" textLength="7" x="63" y="209.751">3</text><text fill="#000000" font-family="Arial" font-size="12" lengthAdjust="spacing" textLength="253" x="74" y="209.751">3. Ch&#7885;n t&#224;i kho&#7843;n Google &amp; &#272;&#7891;ng &#253; &#273;&#259;ng nh&#7853;p</text><polygon fill="#1D3557" points="902,238.0928,912,242.0928,902,246.0928,906,242.0928" style="stroke:#1D3557;stroke-width:1.0;"/><line style="stroke:#1D3557;stroke-width:1.0;" x1="516" x2="908" y1="242.0928" y2="242.0928"/><text fill="#000000" font-family="Arial" font-size="12" font-weight="bold" lengthAdjust="spacing" textLength="7" x="523" y="237.5498">4</text><text fill="#000000" font-family="Arial" font-size="12" lengthAdjust="spacing" textLength="188" x="534" y="237.5498">4. G&#7917;i th&#244;ng tin x&#225;c th&#7921;c t&#7915; Google</text><line style="stroke:#1D3557;stroke-width:1.0;" x1="924" x2="966" y1="269.8916" y2="269.8916"/><line style="stroke:#1D3557;stroke-width:1.0;" x1="966" x2="966" y1="269.8916" y2="282.8916"/><line style="stroke:#1D3557;stroke-width:1.0;" x1="925" x2="966" y1="282.8916" y2="282.8916"/><polygon fill="#1D3557" points="935,278.8916,925,282.8916,935,286.8916,931,282.8916" style="stroke:#1D3557;stroke-width:1.0;"/><text fill="#000000" font-family="Arial" font-size="12" font-weight="bold" lengthAdjust="spacing" textLength="7" x="931" y="265.3486">5</text><text fill="#000000" font-family="Arial" font-size="12" lengthAdjust="spacing" textLength="229" x="942" y="265.3486">5. X&#225;c minh th&#244;ng tin t&#224;i kho&#7843;n v&#7899;i Google</text><path d="M13,297.8916 L69,297.8916 L69,303.6904 L59,313.6904 L10,313.6904 L10,300.8916 A3,3 0 0 1 13,297.8916 " fill="#F8F9FA" style="stroke:#457B9D;stroke-width:1.5;"/><rect fill="none" height="436.7813" rx="3" ry="3" style="stroke:#457B9D;stroke-width:1.5;" width="1298" x="10" y="297.8916"/><text fill="#000000" font-family="Arial" font-size="12" font-weight="bold" lengthAdjust="spacing" textLength="14" x="25" y="310.1475">alt</text><text fill="#000000" font-family="Arial" font-size="12" font-weight="bold" lengthAdjust="spacing" textLength="233" x="84" y="311.1475">[Th&#244;ng tin x&#225;c th&#7921;c Google kh&#244;ng h&#7907;p l&#7879;]</text><polygon fill="#1D3557" points="527,329.4893,517,333.4893,527,337.4893,523,333.4893" style="stroke:#1D3557;stroke-width:1.0;"/><line style="stroke:#1D3557;stroke-width:1.0;stroke-dasharray:2.0,2.0;" x1="521" x2="913" y1="333.4893" y2="333.4893"/><text fill="#000000" font-family="Arial" font-size="12" font-weight="bold" lengthAdjust="spacing" textLength="7" x="533" y="328.9463">6</text><text fill="#000000" font-family="Arial" font-size="12" lengthAdjust="spacing" textLength="238" x="544" y="328.9463">6. Tr&#7843; v&#7873; th&#244;ng b&#225;o x&#225;c th&#7921;c Google th&#7845;t b&#7841;i</text><polygon fill="#1D3557" points="67,357.2881,57,361.2881,67,365.2881,63,361.2881" style="stroke:#1D3557;stroke-width:1.0;"/><line style="stroke:#1D3557;stroke-width:1.0;stroke-dasharray:2.0,2.0;" x1="61" x2="505" y1="361.2881" y2="361.2881"/><text fill="#000000" font-family="Arial" font-size="12" font-weight="bold" lengthAdjust="spacing" textLength="7" x="73" y="356.7451">7</text><text fill="#000000" font-family="Arial" font-size="12" lengthAdjust="spacing" textLength="244" x="84" y="356.7451">7. Hi&#7875;n th&#7883; "&#272;&#259;ng nh&#7853;p b&#7857;ng Google th&#7845;t b&#7841;i"</text><line style="stroke:#457B9D;stroke-width:1.0;stroke-dasharray:2.0,2.0;" x1="10" x2="1308" y1="370.2881" y2="370.2881"/><text fill="#000000" font-family="Arial" font-size="12" font-weight="bold" lengthAdjust="spacing" textLength="141" x="15" y="381.5439">[Th&#244;ng tin Google h&#7907;p l&#7879;]</text><polygon fill="#1D3557" points="1230,400.8857,1240,404.8857,1230,408.8857,1234,404.8857" style="stroke:#1D3557;stroke-width:1.0;"/><line style="stroke:#1D3557;stroke-width:1.0;" x1="924" x2="1236" y1="404.8857" y2="404.8857"/><text fill="#000000" font-family="Arial" font-size="12" font-weight="bold" lengthAdjust="spacing" textLength="7" x="931" y="400.3428">8</text><text fill="#000000" font-family="Arial" font-size="12" lengthAdjust="spacing" textLength="247" x="942" y="400.3428">8. T&#236;m ki&#7871;m T&#224;i kho&#7843;n theo Google ID / Email</text><polygon fill="#1D3557" points="935,428.6846,925,432.6846,935,436.6846,931,432.6846" style="stroke:#1D3557;stroke-width:1.0;"/><line style="stroke:#1D3557;stroke-width:1.0;stroke-dasharray:2.0,2.0;" x1="929" x2="1246" y1="432.6846" y2="432.6846"/><text fill="#000000" font-family="Arial" font-size="12" font-weight="bold" lengthAdjust="spacing" textLength="7" x="941" y="428.1416">9</text><text fill="#000000" font-family="Arial" font-size="12" lengthAdjust="spacing" textLength="201" x="952" y="428.1416">9. Tr&#7843; v&#7873; th&#244;ng tin T&#224;i kho&#7843;n (n&#7871;u c&#243;)</text><path d="M814,447.6846 L870,447.6846 L870,453.4834 L860,463.4834 L811,463.4834 L811,450.6846 A3,3 0 0 1 814,447.6846 " fill="#F8F9FA" style="stroke:#457B9D;stroke-width:1.5;"/><rect fill="none" height="142.793" rx="3" ry="3" style="stroke:#457B9D;stroke-width:1.5;" width="487" x="811" y="447.6846"/><text fill="#000000" font-family="Arial" font-size="12" font-weight="bold" lengthAdjust="spacing" textLength="14" x="826" y="459.9404">alt</text><text fill="#000000" font-family="Arial" font-size="12" font-weight="bold" lengthAdjust="spacing" textLength="219" x="885" y="460.9404">[T&#224;i kho&#7843;n ch&#432;a t&#7891;n t&#7841;i trong h&#7879; th&#7889;ng]</text><polygon fill="#1D3557" points="1230,479.2822,1240,483.2822,1230,487.2822,1234,483.2822" style="stroke:#1D3557;stroke-width:1.0;"/><line style="stroke:#1D3557;stroke-width:1.0;" x1="924" x2="1236" y1="483.2822" y2="483.2822"/><text fill="#000000" font-family="Arial" font-size="12" font-weight="bold" lengthAdjust="spacing" textLength="14" x="931" y="478.7393">10</text><text fill="#000000" font-family="Arial" font-size="12" lengthAdjust="spacing" textLength="281" x="949" y="478.7393">10. T&#7921; &#273;&#7897;ng &#273;&#259;ng k&#253; T&#224;i kho&#7843;n m&#7899;i &amp; T&#7841;o Gi&#7887; h&#224;ng</text><polygon fill="#1D3557" points="935,507.0811,925,511.0811,935,515.0811,931,511.0811" style="stroke:#1D3557;stroke-width:1.0;"/><line style="stroke:#1D3557;stroke-width:1.0;stroke-dasharray:2.0,2.0;" x1="929" x2="1246" y1="511.0811" y2="511.0811"/><text fill="#000000" font-family="Arial" font-size="12" font-weight="bold" lengthAdjust="spacing" textLength="14" x="941" y="506.5381">11</text><text fill="#000000" font-family="Arial" font-size="12" lengthAdjust="spacing" textLength="212" x="959" y="506.5381">11. X&#225;c nh&#7853;n t&#7841;o T&#224;i kho&#7843;n th&#224;nh c&#244;ng</text><line style="stroke:#457B9D;stroke-width:1.0;stroke-dasharray:2.0,2.0;" x1="811" x2="1298" y1="520.0811" y2="520.0811"/><text fill="#000000" font-family="Arial" font-size="12" font-weight="bold" lengthAdjust="spacing" textLength="118" x="816" y="531.3369">[T&#224;i kho&#7843;n &#273;&#227; t&#7891;n t&#7841;i]</text><polygon fill="#1D3557" points="1230,550.6787,1240,554.6787,1230,558.6787,1234,554.6787" style="stroke:#1D3557;stroke-width:1.0;"/><line style="stroke:#1D3557;stroke-width:1.0;" x1="924" x2="1236" y1="554.6787" y2="554.6787"/><text fill="#000000" font-family="Arial" font-size="12" font-weight="bold" lengthAdjust="spacing" textLength="14" x="931" y="550.1357">12</text><text fill="#000000" font-family="Arial" font-size="12" lengthAdjust="spacing" textLength="170" x="949" y="550.1357">12. C&#7853;p nh&#7853;t li&#234;n k&#7871;t Google ID</text><polygon fill="#1D3557" points="935,578.4775,925,582.4775,935,586.4775,931,582.4775" style="stroke:#1D3557;stroke-width:1.0;"/><line style="stroke:#1D3557;stroke-width:1.0;stroke-dasharray:2.0,2.0;" x1="929" x2="1246" y1="582.4775" y2="582.4775"/><text fill="#000000" font-family="Arial" font-size="12" font-weight="bold" lengthAdjust="spacing" textLength="14" x="941" y="577.9346">13</text><text fill="#000000" font-family="Arial" font-size="12" lengthAdjust="spacing" textLength="185" x="959" y="577.9346">13. X&#225;c nh&#7853;n c&#7853;p nh&#7853;t th&#224;nh c&#244;ng</text><line style="stroke:#1D3557;stroke-width:1.0;" x1="924" x2="966" y1="617.2764" y2="617.2764"/><line style="stroke:#1D3557;stroke-width:1.0;" x1="966" x2="966" y1="617.2764" y2="630.2764"/><line style="stroke:#1D3557;stroke-width:1.0;" x1="925" x2="966" y1="630.2764" y2="630.2764"/><polygon fill="#1D3557" points="935,626.2764,925,630.2764,935,634.2764,931,630.2764" style="stroke:#1D3557;stroke-width:1.0;"/><text fill="#000000" font-family="Arial" font-size="12" font-weight="bold" lengthAdjust="spacing" textLength="14" x="931" y="612.7334">14</text><text fill="#000000" font-family="Arial" font-size="12" lengthAdjust="spacing" textLength="229" x="949" y="612.7334">14. Kh&#7903;i t&#7841;o phi&#234;n &#273;&#259;ng nh&#7853;p ng&#432;&#7901;i d&#249;ng</text><polygon fill="#1D3557" points="527,654.0752,517,658.0752,527,662.0752,523,658.0752" style="stroke:#1D3557;stroke-width:1.0;"/><line style="stroke:#1D3557;stroke-width:1.0;stroke-dasharray:2.0,2.0;" x1="521" x2="918" y1="658.0752" y2="658.0752"/><text fill="#000000" font-family="Arial" font-size="12" font-weight="bold" lengthAdjust="spacing" textLength="14" x="533" y="653.5322">15</text><text fill="#000000" font-family="Arial" font-size="12" lengthAdjust="spacing" textLength="356" x="551" y="653.5322">15. Tr&#7843; v&#7873; k&#7871;t qu&#7843; &#272;&#259;ng nh&#7853;p th&#224;nh c&#244;ng &amp; Th&#244;ng tin ng&#432;&#7901;i d&#249;ng</text><line style="stroke:#1D3557;stroke-width:1.0;" x1="516" x2="558" y1="685.874" y2="685.874"/><line style="stroke:#1D3557;stroke-width:1.0;" x1="558" x2="558" y1="685.874" y2="698.874"/><line style="stroke:#1D3557;stroke-width:1.0;" x1="517" x2="558" y1="698.874" y2="698.874"/><polygon fill="#1D3557" points="527,694.874,517,698.874,527,702.874,523,698.874" style="stroke:#1D3557;stroke-width:1.0;"/><text fill="#000000" font-family="Arial" font-size="12" font-weight="bold" lengthAdjust="spacing" textLength="14" x="523" y="681.3311">16</text><text fill="#000000" font-family="Arial" font-size="12" lengthAdjust="spacing" textLength="278" x="541" y="681.3311">16. L&#432;u tr&#7841;ng th&#225;i &#273;&#259;ng nh&#7853;p &amp; Ki&#7875;m tra quy&#7873;n h&#7841;n</text><polygon fill="#1D3557" points="67,722.6729,57,726.6729,67,730.6729,63,726.6729" style="stroke:#1D3557;stroke-width:1.0;"/><line style="stroke:#1D3557;stroke-width:1.0;stroke-dasharray:2.0,2.0;" x1="61" x2="510" y1="726.6729" y2="726.6729"/><text fill="#000000" font-family="Arial" font-size="12" font-weight="bold" lengthAdjust="spacing" textLength="14" x="73" y="722.1299">17</text><text fill="#000000" font-family="Arial" font-size="12" lengthAdjust="spacing" textLength="408" x="91" y="722.1299">17. Th&#244;ng b&#225;o "&#272;&#259;ng nh&#7853;p Google th&#224;nh c&#244;ng" &amp; Chuy&#7875;n h&#432;&#7899;ng giao di&#7879;n</text><!--SRC=[hLNBRjj65DtpAouKmBKNKaCxicCl0kZj8gfYm2gQHJTZaXO78eSADSgZHHP95baKHUi4NHH141j67sWJL4QxgOYY2nhwZ_cJtXcAqb2cWYoY3SMvSyyzvxv8HZnW8__82OrXdx812OaFGvVOmGFAUd1ClA6ZMS9Wn6mh29aJmhPsVa12JYqw88mV4DkMhfjbpMuxnsJayMR0U8Vu3bH2Ihny-o7zsW5pqp0-WKF-o7EWHqa0DXNHSmPhmDtubBamSCNaLwOX48i78NnZ0FwgnEht5DLQuE7fjSPsytgpajY2q7R2sRbPtogNTup76ivWeMGLMbFzhgBTAEzKT-lgN0fP7SCcd1oHeVCHw0wTUoE7MIbK9Go31zdRwbWc9mzA6jlqs6bJvgpIChTVoSFDvkwCPWlF1wi04kCAxyU6mId7CXzEJ-7o1n6zWEuNOl9B1xeY6kz1RLz4lzMWS_cqqqAxUdJsnUJj0LJ5P8nlhJjtMkq6h7ShNrQwjVqDmqXweT3fJSSYUat1ZlzXlGAGOP88GwzneIiRgQTtsLTilHbY0HrcRoYlPYFNvQ68te4N_mkj8EYXWdRGez9PIftxLXl6lDo5slGCXY9w0xQ8_WHFHXkXG-smtavkrwkoxul5udkbejrGIg1u2yd17fWbwE14_Co0nHDaYDxFa273itS3E1AJ2tnBQ1PaUkXzmXsfoq3t56Ip19zBSXRg8fBdZt1vekCa04kXjqfGSqNq7GCUdrBeku6OdBCq9skgfYyH0_EKGKj3LoN8ZHAqC2gLu_qtNk6KmSFupC9t4LtWGqH_fE7dz36rHdM1KIx1NUdYKzmF6aw6rdqHlQ8faa4y3jtyY3F-_SIAP-S3yB1UoLJA6ipqRvUW6oAsX7wInZsApu8yE2wBn6L1pcYoA1Aa9ALxi5E2VUoAPqpvVVlUGcR02eQ3creNCxkKm_mMjXd6ked4uxS-zAcO_EVZVorDt7M25E6pEdmA3PzGJo7Cqu-zAjyHgvYMO3Sl5v9C1doTOS0HMF5V6mh1TfOnaq2oEBgVvKx7HBR2IoGeHGF7CLN5UQxoTS9wodD9g7cz99V91VQVY7v2XraVzh4bCm5yrHnhU7c2vMjX8Ru7-RbPe2uJNKw0QSwQK1KieHaifrPzm2oPcpd6rHGavTGTBq_YSrrzhbISuPfg5KM0uuw9VsVGnuJpHJq_NCvMLewbGt-e46OlQggDguapVnkBzeREiZHm5TVioc6P7Nvb-CnofkCIdVT6yY0xEJfPMU55Q-P4q4JWZfcJrrQbYLFVdev7s878NIAvCVPZbliQt9QpxECbWgGU8KE6pOhtyqRVnDdlQjjZQVJdCx_GKS08DLVYuhvmfOfNsG_PiXZSzx8Q_mC0]--></g></svg>