<?xml version="1.0" encoding="us-ascii" standalone="no"?><svg xmlns="http://www.w3.org/2000/svg" xmlns:xlink="http://www.w3.org/1999/xlink" contentStyleType="text/css" height="527px" preserveAspectRatio="none" style="width:1113px;height:527px;background:#FFFFFF;" version="1.1" viewBox="0 0 1113 527" width="1113px" zoomAndPan="magnify"><defs/><g><text fill="#000000" font-family="Arial" font-size="14" font-weight="bold" lengthAdjust="spacing" textLength="447" x="334.5" y="28.1318">S&#416; &#272;&#7890; TU&#7846;N T&#7920;: CH&#7912;C N&#258;NG &#272;&#258;NG XU&#7844;T H&#7878; TH&#7888;NG (TAWATCH)</text><rect fill="#F8F9FA" height="274.3906" style="stroke:#457B9D;stroke-width:1.0;" width="10" x="441" y="145.6963"/><rect fill="#F8F9FA" height="68.5977" style="stroke:#457B9D;stroke-width:1.0;" width="10" x="788" y="242.0928"/><line style="stroke:#457B9D;stroke-width:0.5;stroke-dasharray:5.0,5.0;" x1="41" x2="41" y1="115.8975" y2="438.0869"/><line style="stroke:#457B9D;stroke-width:0.5;stroke-dasharray:5.0,5.0;" x1="446" x2="446" y1="115.8975" y2="438.0869"/><line style="stroke:#457B9D;stroke-width:0.5;stroke-dasharray:5.0,5.0;" x1="792.5" x2="792.5" y1="115.8975" y2="438.0869"/><line style="stroke:#457B9D;stroke-width:0.5;stroke-dasharray:5.0,5.0;" x1="1071" x2="1071" y1="115.8975" y2="438.0869"/><text fill="#000000" font-family="Arial" font-size="12" lengthAdjust="spacing" textLength="66" x="5" y="113.3545">Ng&#432;&#7901;i d&#249;ng</text><ellipse cx="41" cy="50.5986" fill="#E6F0FA" rx="8" ry="8" style="stroke:#1D3557;stroke-width:0.5;"/><path d="M41,58.5986 L41,85.5986 M28,66.5986 L54,66.5986 M41,85.5986 L28,100.5986 M41,85.5986 L54,100.5986 " fill="none" style="stroke:#1D3557;stroke-width:0.5;"/><text fill="#000000" font-family="Arial" font-size="12" lengthAdjust="spacing" textLength="66" x="5" y="448.3428">Ng&#432;&#7901;i d&#249;ng</text><ellipse cx="41" cy="459.3857" fill="#E6F0FA" rx="8" ry="8" style="stroke:#1D3557;stroke-width:0.5;"/><path d="M41,467.3857 L41,494.3857 M28,475.3857 L54,475.3857 M41,494.3857 L28,509.3857 M41,494.3857 L54,509.3857 " fill="none" style="stroke:#1D3557;stroke-width:0.5;"/><rect fill="#FFFFFF" height="41.5977" rx="3" ry="3" style="stroke:#457B9D;stroke-width:0.5;" width="96" x="398" y="73.2998"/><text fill="#1D3557" font-family="Arial" font-size="12" lengthAdjust="spacing" textLength="82" x="405" y="91.5557">T&#7847;ng giao di&#7879;n</text><text fill="#1D3557" font-family="Arial" font-size="12" lengthAdjust="spacing" textLength="57" x="417.5" y="105.3545">(Frontend)</text><rect fill="#FFFFFF" height="41.5977" rx="3" ry="3" style="stroke:#457B9D;stroke-width:0.5;" width="96" x="398" y="437.0869"/><text fill="#1D3557" font-family="Arial" font-size="12" lengthAdjust="spacing" textLength="82" x="405" y="455.3428">T&#7847;ng giao di&#7879;n</text><text fill="#1D3557" font-family="Arial" font-size="12" lengthAdjust="spacing" textLength="57" x="417.5" y="469.1416">(Frontend)</text><rect fill="#FFFFFF" height="41.5977" rx="3" ry="3" style="stroke:#457B9D;stroke-width:0.5;" width="127" x="729.5" y="73.2998"/><text fill="#1D3557" font-family="Arial" font-size="12" lengthAdjust="spacing" textLength="113" x="736.5" y="91.5557">T&#7847;ng x&#7917; l&#253; &#272;&#259;ng xu&#7845;t</text><text fill="#1D3557" font-family="Arial" font-size="12" lengthAdjust="spacing" textLength="56" x="765" y="105.3545">(Backend)</text><rect fill="#FFFFFF" height="41.5977" rx="3" ry="3" style="stroke:#457B9D;stroke-width:0.5;" width="127" x="729.5" y="437.0869"/><text fill="#1D3557" font-family="Arial" font-size="12" lengthAdjust="spacing" textLength="113" x="736.5" y="455.3428">T&#7847;ng x&#7917; l&#253; &#272;&#259;ng xu&#7845;t</text><text fill="#1D3557" font-family="Arial" font-size="12" lengthAdjust="spacing" textLength="56" x="765" y="469.1416">(Backend)</text><text fill="#000000" font-family="Arial" font-size="12" lengthAdjust="spacing" textLength="76" x="1030" y="99.5557">C&#417; s&#7903; d&#7919; li&#7879;u</text><text fill="#000000" font-family="Arial" font-size="12" lengthAdjust="spacing" textLength="41" x="1047.5" y="113.3545">(CSDL)</text><path d="M1053,52.2998 C1053,42.2998 1071,42.2998 1071,42.2998 C1071,42.2998 1089,42.2998 1089,52.2998 L1089,78.2998 C1089,88.2998 1071,88.2998 1071,88.2998 C1071,88.2998 1053,88.2998 1053,78.2998 L1053,52.2998 " fill="#E6F0FA" style="stroke:#1D3557;stroke-width:1.5;"/><path d="M1053,52.2998 C1053,62.2998 1071,62.2998 1071,62.2998 C1071,62.2998 1089,62.2998 1089,52.2998 " fill="none" style="stroke:#1D3557;stroke-width:1.5;"/><text fill="#000000" font-family="Arial" font-size="12" lengthAdjust="spacing" textLength="76" x="1030" y="448.3428">C&#417; s&#7903; d&#7919; li&#7879;u</text><text fill="#000000" font-family="Arial" font-size="12" lengthAdjust="spacing" textLength="41" x="1047.5" y="462.1416">(CSDL)</text><path d="M1053,474.6846 C1053,464.6846 1071,464.6846 1071,464.6846 C1071,464.6846 1089,464.6846 1089,474.6846 L1089,500.6846 C1089,510.6846 1071,510.6846 1071,510.6846 C1071,510.6846 1053,510.6846 1053,500.6846 L1053,474.6846 " fill="#E6F0FA" style="stroke:#1D3557;stroke-width:1.5;"/><path d="M1053,474.6846 C1053,484.6846 1071,484.6846 1071,484.6846 C1071,484.6846 1089,484.6846 1089,474.6846 " fill="none" style="stroke:#1D3557;stroke-width:1.5;"/><rect fill="#F8F9FA" height="274.3906" style="stroke:#457B9D;stroke-width:1.0;" width="10" x="441" y="145.6963"/><rect fill="#F8F9FA" height="68.5977" style="stroke:#457B9D;stroke-width:1.0;" width="10" x="788" y="242.0928"/><polygon fill="#1D3557" points="429,141.6963,439,145.6963,429,149.6963,433,145.6963" style="stroke:#1D3557;stroke-width:1.0;"/><line style="stroke:#1D3557;stroke-width:1.0;" x1="41" x2="435" y1="145.6963" y2="145.6963"/><text fill="#000000" font-family="Arial" font-size="12" font-weight="bold" lengthAdjust="spacing" textLength="7" x="48" y="141.1533">1</text><text fill="#000000" font-family="Arial" font-size="12" lengthAdjust="spacing" textLength="254" x="59" y="141.1533">1. Nh&#7845;n n&#250;t "&#272;&#259;ng xu&#7845;t" tr&#234;n thanh &#273;i&#7873;u h&#432;&#7899;ng</text><line style="stroke:#1D3557;stroke-width:1.0;" x1="451" x2="493" y1="173.4951" y2="173.4951"/><line style="stroke:#1D3557;stroke-width:1.0;" x1="493" x2="493" y1="173.4951" y2="186.4951"/><line style="stroke:#1D3557;stroke-width:1.0;" x1="452" x2="493" y1="186.4951" y2="186.4951"/><polygon fill="#1D3557" points="462,182.4951,452,186.4951,462,190.4951,458,186.4951" style="stroke:#1D3557;stroke-width:1.0;"/><text fill="#000000" font-family="Arial" font-size="12" font-weight="bold" lengthAdjust="spacing" textLength="7" x="458" y="168.9521">2</text><text fill="#000000" font-family="Arial" font-size="12" lengthAdjust="spacing" textLength="219" x="469" y="168.9521">2. Hi&#7875;n th&#7883; h&#7897;p tho&#7841;i x&#225;c nh&#7853;n &#272;&#259;ng xu&#7845;t</text><polygon fill="#1D3557" points="429,210.2939,439,214.2939,429,218.2939,433,214.2939" style="stroke:#1D3557;stroke-width:1.0;"/><line style="stroke:#1D3557;stroke-width:1.0;" x1="41" x2="435" y1="214.2939" y2="214.2939"/><text fill="#000000" font-family="Arial" font-size="12" font-weight="bold" lengthAdjust="spacing" textLength="7" x="48" y="209.751">3</text><text fill="#000000" font-family="Arial" font-size="12" lengthAdjust="spacing" textLength="161" x="59" y="209.751">3. X&#225;c nh&#7853;n &#273;&#7891;ng &#253; &#272;&#259;ng xu&#7845;t</text><polygon fill="#1D3557" points="776,238.0928,786,242.0928,776,246.0928,780,242.0928" style="stroke:#1D3557;stroke-width:1.0;"/><line style="stroke:#1D3557;stroke-width:1.0;" x1="451" x2="782" y1="242.0928" y2="242.0928"/><text fill="#000000" font-family="Arial" font-size="12" font-weight="bold" lengthAdjust="spacing" textLength="7" x="458" y="237.5498">4</text><text fill="#000000" font-family="Arial" font-size="12" lengthAdjust="spacing" textLength="244" x="469" y="237.5498">4. G&#7917;i y&#234;u c&#7847;u &#273;&#259;ng xu&#7845;t (POST /auth/logout)</text><line style="stroke:#1D3557;stroke-width:1.0;" x1="798" x2="840" y1="269.8916" y2="269.8916"/><line style="stroke:#1D3557;stroke-width:1.0;" x1="840" x2="840" y1="269.8916" y2="282.8916"/><line style="stroke:#1D3557;stroke-width:1.0;" x1="799" x2="840" y1="282.8916" y2="282.8916"/><polygon fill="#1D3557" points="809,278.8916,799,282.8916,809,286.8916,805,282.8916" style="stroke:#1D3557;stroke-width:1.0;"/><text fill="#000000" font-family="Arial" font-size="12" font-weight="bold" lengthAdjust="spacing" textLength="7" x="805" y="265.3486">5</text><text fill="#000000" font-family="Arial" font-size="12" lengthAdjust="spacing" textLength="243" x="816" y="265.3486">5. Thu h&#7891;i / V&#244; hi&#7879;u h&#243;a Access Token (JWT)</text><polygon fill="#1D3557" points="462,306.6904,452,310.6904,462,314.6904,458,310.6904" style="stroke:#1D3557;stroke-width:1.0;"/><line style="stroke:#1D3557;stroke-width:1.0;stroke-dasharray:2.0,2.0;" x1="456" x2="792" y1="310.6904" y2="310.6904"/><text fill="#000000" font-family="Arial" font-size="12" font-weight="bold" lengthAdjust="spacing" textLength="7" x="468" y="306.1475">6</text><text fill="#000000" font-family="Arial" font-size="12" lengthAdjust="spacing" textLength="261" x="479" y="306.1475">6. Tr&#7843; v&#7873; k&#7871;t qu&#7843; &#273;&#259;ng xu&#7845;t th&#224;nh c&#244;ng (200 OK)</text><line style="stroke:#1D3557;stroke-width:1.0;" x1="451" x2="493" y1="338.4893" y2="338.4893"/><line style="stroke:#1D3557;stroke-width:1.0;" x1="493" x2="493" y1="338.4893" y2="351.4893"/><line style="stroke:#1D3557;stroke-width:1.0;" x1="452" x2="493" y1="351.4893" y2="351.4893"/><polygon fill="#1D3557" points="462,347.4893,452,351.4893,462,355.4893,458,351.4893" style="stroke:#1D3557;stroke-width:1.0;"/><text fill="#000000" font-family="Arial" font-size="12" font-weight="bold" lengthAdjust="spacing" textLength="7" x="458" y="333.9463">7</text><text fill="#000000" font-family="Arial" font-size="12" lengthAdjust="spacing" textLength="312" x="469" y="333.9463">7. X&#243;a Access Token &amp; Th&#244;ng tin User trong localStorage</text><line style="stroke:#1D3557;stroke-width:1.0;" x1="451" x2="493" y1="379.2881" y2="379.2881"/><line style="stroke:#1D3557;stroke-width:1.0;" x1="493" x2="493" y1="379.2881" y2="392.2881"/><line style="stroke:#1D3557;stroke-width:1.0;" x1="452" x2="493" y1="392.2881" y2="392.2881"/><polygon fill="#1D3557" points="462,388.2881,452,392.2881,462,396.2881,458,392.2881" style="stroke:#1D3557;stroke-width:1.0;"/><text fill="#000000" font-family="Arial" font-size="12" font-weight="bold" lengthAdjust="spacing" textLength="7" x="458" y="374.7451">8</text><text fill="#000000" font-family="Arial" font-size="12" lengthAdjust="spacing" textLength="271" x="469" y="374.7451">8. &#272;&#7863;t l&#7841;i tr&#7841;ng th&#225;i ng&#432;&#7901;i d&#249;ng (User State = null)</text><polygon fill="#1D3557" points="52,416.0869,42,420.0869,52,424.0869,48,420.0869" style="stroke:#1D3557;stroke-width:1.0;"/><line style="stroke:#1D3557;stroke-width:1.0;stroke-dasharray:2.0,2.0;" x1="46" x2="445" y1="420.0869" y2="420.0869"/><text fill="#000000" font-family="Arial" font-size="12" font-weight="bold" lengthAdjust="spacing" textLength="7" x="58" y="415.5439">9</text><text fill="#000000" font-family="Arial" font-size="12" lengthAdjust="spacing" textLength="365" x="69" y="415.5439">9. Hi&#7875;n th&#7883; th&#244;ng b&#225;o "&#272;&#227; &#273;&#259;ng xu&#7845;t" &amp; Chuy&#7875;n h&#432;&#7899;ng v&#7873; Trang ch&#7911;</text><!--SRC=[hLJBJjj05DtxAwvIYIQB10Y4bzHAUH1GYm9IJ67HpM0FzWWp3lQOHoiMBLAxw0RAgggg4hMK2WaLgKXLRLLT6F4V_fFUiGauWUpgXH_tpZbpxhbtJ3nXSszzXJgAkyPuYpXa7LoJwFOMumQi4ikbgOnZUrpNR8TJ1yPIyGNY2AQn5k5YWUYwX1PBgRnELubdYRhDHOEiKoWxZ5Ztvvli1ONXeg8yXAROiIWOZDYWioXuos40X1aUSHDQPkIVy1G3qOJjm4i5yAeGRSs8fLPj2wCFfiVgG_LoahCTdJhNyU7QIAaqhkocU5gtbVHZgyVNNRRHqdXbiXR7PI7zzz2982l4fVz1haitFCgr3bNPSUojxjLnM9fp7vLCph5LEiSuxLVBJVwE3nFroMkPCnXlzID8adtGkueYcC0sDw-Eu78_2jw3kXZvtngWHi7v55Hde-1x5HgNhnipc8yVoxZWgmgOUGCgtlSnbbNBIsMrEfjJb6GKCWtZwZmAFZ7Gmz_So01n4n-KT8ipgfmZ8praptcsxc3_ADTpCQe-VIzaEmhEm0h_I5LxyjkB_6E1Q5dg3RWohToqErEzQeCR1Pz1Zu8VOCdjF0HKcxMvP7Mj8kS-dy_tb8eH9HOF-SUe1wPWk00DF0F777ZeewWk4HaGJdZAyR0GF2kN1xZHAmzCwST7RaY3s2OHL5Qc85k7irY0MLow9u5Hy0xmzg65xtRajnbiXsqDEEvvnhjBxb4sKe3bzDA3A3Z4jRr6TNQkICne0MRGJWOxuQa76Xhi8J2r6h8ByqqL1eadp47BDcnFv6xhG9ELoYrRgG2gwKdvXmm6uLbu0MRiDPZXJu9Je57N1TN6Ba7soPAQYy4T_ME8TYB_2soYQx0M-Ny5R7WoqAte-a-aXHSOonQ7Xc3-QKxHQPUgbBlZqfVUxGTGQKmW68T55t-h0cVF0ClMYDL4Mub1qoGJ1Nb8_5y2hBWf0fMs9TmCyOjtZJnaOyAca68U0VSiAnTp8LdIiYcOx6cvIDIiX6rRpbJOKtG61LTDRoT6TEOfCKfr2Bvgo7AIDW57x1y0]--></g></svg>